<svg width="50" height="50" viewBox="0 0 50 50" fill="none" xmlns="http://www.w3.org/2000/svg">
<path d="M47.0563 0L43.0398 44.9948L24.9855 50L6.98098 45.0018L2.96875 0H47.0563Z" fill="#264DE4"/>
<path d="M25.0125 46.1742L39.6012 42.1297L43.0335 3.67957H25.0125V46.1742Z" fill="#2965F1"/>
<path d="M25.0125 20.3701H12.1667L12.6614 25.8893H25.0125V20.3701Z" fill="#EBEBEB"/>
<path d="M25.0125 9.19895H24.9934H11.1727L11.6745 14.7183H25.0125V9.19895Z" fill="#EBEBEB"/>
<path d="M12.908 28.6491L13.6812 37.3152L24.9871 40.4538L25.0125 40.4467V34.7043L24.9883 34.7108L18.8414 33.051L18.4485 28.6491H15.4616H12.908Z" fill="#EBEBEB"/>
<path d="M31.7898 25.8894L31.1492 33.0475L24.9934 34.7089V40.4511L36.3083 37.3152L36.3913 36.3827L37.6882 21.8522L37.8229 20.3701L38.8193 9.19895H24.9934V14.7183H32.7707L32.2684 20.3701H24.9934V25.8894H31.7898Z" fill="white"/>
</svg>
