<svg width="32" height="32" viewBox="0 0 32 32" fill="none" xmlns="http://www.w3.org/2000/svg">
<g clip-path="url(#clip0_226_128)">
<path d="M16 4C9.375 4 4 9.375 4 16C4 22.625 9.375 28 16 28C17.1063 28 18 28.8937 18 30C18 31.1063 17.1063 32 16 32C7.1625 32 0 24.8375 0 16C0 7.1625 7.1625 0 16 0C24.8375 0 32 7.1625 32 16V18C32 21.3125 29.3125 24 26 24C24.1688 24 22.525 23.175 21.425 21.8813C20 23.1938 18.0938 24 16 24C11.5813 24 8 20.4187 8 16C8 11.5813 11.5813 8 16 8C17.7437 8 19.3563 8.55625 20.6688 9.50625C21.025 9.19375 21.4875 9 22 9C23.1063 9 24 9.89375 24 11V16V18C24 19.1063 24.8937 20 26 20C27.1063 20 28 19.1063 28 18V16C28 9.375 22.625 4 16 4ZM20 16C20 13.7938 18.2062 12 16 12C13.7938 12 12 13.7938 12 16C12 18.2062 13.7938 20 16 20C18.2062 20 20 18.2062 20 16Z" fill="#61DAFB"/>
</g>
<defs>
<clipPath id="clip0_226_128">
<rect width="32" height="32" fill="white"/>
</clipPath>
</defs>
</svg>
