<svg width="44" height="50" viewBox="0 0 44 50" fill="none" xmlns="http://www.w3.org/2000/svg">
<g clip-path="url(#clip0_21_297)">
<path d="M42.9248 23.0518L23.8281 3.9502C23.2994 3.42202 22.5827 3.12533 21.8354 3.12533C21.0881 3.12533 20.3714 3.42202 19.8427 3.9502L15.872 7.91797L20.9033 12.9492C23.5459 12.0566 26.0478 14.5869 25.1406 17.2148L29.9902 22.0645C33.333 20.9121 35.9648 25.0918 33.4541 27.6006C30.8671 30.1875 26.5976 27.3203 27.9853 23.9541L23.4589 19.4336V31.333C25.9296 32.5576 25.6328 35.4199 24.3457 36.7041C23.7168 37.3326 22.8641 37.6856 21.9751 37.6856C21.086 37.6856 20.2333 37.3326 19.6044 36.7041C17.8886 34.9854 18.5234 32.1231 20.7031 31.2354V19.2236C18.6718 18.3926 18.3007 16.2217 18.8828 14.8291L13.9228 9.86328L0.825151 22.9629C0.296732 23.4914 -0.00012207 24.2082 -0.00012207 24.9556C-0.00012207 25.7029 0.296732 26.4197 0.825151 26.9482L19.9277 46.0498C20.4562 46.5779 21.1727 46.8746 21.9199 46.8746C22.667 46.8746 23.3836 46.5779 23.9121 46.0498L42.9248 27.0371C43.4532 26.5086 43.75 25.7918 43.75 25.0444C43.75 24.2971 43.4532 23.5803 42.9248 23.0518Z" fill="#F64C26"/>
</g>
<defs>
<clipPath id="clip0_21_297">
<rect width="43.75" height="50" fill="white"/>
</clipPath>
</defs>
</svg>
