<svg width="50" height="50" viewBox="0 0 50 50" fill="none" xmlns="http://www.w3.org/2000/svg">
<g clip-path="url(#clip0_16_209)">
<path d="M3.43652 16.709C-1.14453 21.2012 -1.14453 28.7109 3.43652 33.291L16.709 46.5625C21.2012 51.1426 28.7109 51.1426 33.291 46.5625L46.5625 33.291C51.1426 28.7109 51.1426 21.2012 46.5625 16.709L33.291 3.43652C28.7109 -1.14453 21.2012 -1.14453 16.709 3.43652L3.43652 16.709ZM30.8105 30.8105C27.5977 34.0137 22.4023 34.0137 19.1992 30.8105C15.9863 27.5977 15.9863 22.4023 19.1992 19.1992C22.4023 15.9863 27.5977 15.9863 30.8105 19.1992C34.0137 22.4023 34.0137 27.5977 30.8105 30.8105Z" fill="#2962FF"/>
</g>
<defs>
<clipPath id="clip0_16_209">
<rect width="50" height="50" fill="white"/>
</clipPath>
</defs>
</svg>
