<svg width="50" height="50" viewBox="0 0 50 50" fill="none" xmlns="http://www.w3.org/2000/svg">
<g clip-path="url(#clip0_22_321)">
<path d="M6.9688 45.0031L2.9563 0.00156403H47.0438L43.0282 44.9969L24.9719 50L6.9688 45.0031Z" fill="#E44D26"/>
<path d="M39.5891 42.1313L43.0219 3.68125H25V46.1766L39.5891 42.1313Z" fill="#F16529"/>
<path d="M24.9813 9.2H11.1594L12.6485 25.8906H25V20.3719H17.6969L17.1922 14.7203H25V9.2H24.9813ZM25 34.6875L24.9766 34.6937L18.8297 33.0344L18.4391 28.6328H12.8954L13.6688 37.2984L24.975 40.4234L25 40.4156V34.6875Z" fill="#EBEBEB"/>
<path d="M24.9813 25.8906H31.7781L31.1531 33.0469L24.9969 34.7078V40.45L36.3125 37.3141L37.8281 20.3687H25L24.9813 25.8906ZM38.675 10.6812L38.8063 9.2H24.9781V14.7187H38.3094L38.4188 13.4781L38.675 10.6812Z" fill="white"/>
</g>
<defs>
<clipPath id="clip0_22_321">
<rect width="50" height="50" fill="white"/>
</clipPath>
</defs>
</svg>
