<svg width="44" height="50" viewBox="0 0 44 50" fill="none" xmlns="http://www.w3.org/2000/svg">
<g clip-path="url(#clip0_16_206)">
<path d="M39.0625 3.125H4.6875C2.09961 3.125 0 5.22461 0 7.8125V42.1875C0 44.7754 2.09961 46.875 4.6875 46.875H39.0625C41.6504 46.875 43.75 44.7754 43.75 42.1875V7.8125C43.75 5.22461 41.6504 3.125 39.0625 3.125ZM34.2871 18.6328C34.3066 18.9062 34.3066 19.1895 34.3066 19.4629C34.3066 27.9297 27.8613 37.6855 16.084 37.6855C12.4512 37.6855 9.08203 36.6309 6.25 34.8145C6.76758 34.873 7.26563 34.8926 7.79297 34.8926C10.791 34.8926 13.5449 33.877 15.7422 32.1582C12.9297 32.0996 10.5664 30.2539 9.75586 27.7148C10.7422 27.8613 11.6309 27.8613 12.6465 27.5977C9.7168 27.002 7.51953 24.4238 7.51953 21.3086V21.2305C8.36914 21.709 9.36523 22.002 10.4102 22.041C9.53167 21.4567 8.81151 20.6639 8.31394 19.7335C7.81637 18.8032 7.55687 17.7641 7.55859 16.709C7.55859 15.5176 7.87109 14.4238 8.42773 13.4766C11.582 17.3633 16.3184 19.9023 21.6309 20.1758C20.7227 15.8301 23.9746 12.3047 27.8809 12.3047C29.7266 12.3047 31.3867 13.0762 32.5586 14.3262C34.0039 14.0527 35.3906 13.5156 36.6211 12.7832C36.1426 14.2676 35.1367 15.5176 33.8086 16.3086C35.0977 16.1719 36.3477 15.8105 37.5 15.3125C36.6309 16.5918 35.5371 17.7246 34.2871 18.6328Z" fill="#1D9BF0"/>
</g>
<defs>
<clipPath id="clip0_16_206">
<rect width="43.75" height="50" fill="white"/>
</clipPath>
</defs>
</svg>
