<svg width="49" height="50" viewBox="0 0 49 50" fill="none" xmlns="http://www.w3.org/2000/svg">
<g clip-path="url(#clip0_20_278)">
<path d="M38.4668 33.7109C34.6582 34.6191 33.7402 36.8457 28.3105 38.3398C28.3105 38.3398 28.0469 38.7305 27.2949 38.9062C25.9863 39.2285 21.0547 39.4922 20.6055 39.502C19.3945 39.5117 18.6621 39.1895 18.457 38.7012C17.832 37.207 19.3555 36.5527 19.3555 36.5527C18.5645 36.0645 18.4766 35.5859 18.3984 35.7617C18.1641 36.3281 18.0469 37.7246 17.4121 38.3496C16.5527 39.2188 14.9219 38.9258 13.9648 38.4277C12.9102 37.8711 14.043 36.5527 14.043 36.5527C14.043 36.5527 13.4766 36.8848 13.0176 36.2012C12.4316 35.293 11.3477 32.5586 14.1406 30.1465C14.0137 29.1602 13.6914 24.9023 18.1055 21.7871C18.1055 21.7871 16.0938 19.5605 16.8457 17.5586C17.334 16.25 17.5293 16.2598 17.6855 16.2012C18.2422 15.9863 18.7891 15.752 19.1895 15.3125C21.2012 13.1445 23.7598 13.5547 23.7598 13.5547C23.7598 13.5547 24.9707 9.86328 26.0938 10.5859C26.4355 10.8105 27.6855 13.5742 27.6855 13.5742C27.6855 13.5742 29.0137 12.8027 29.1602 13.0859C29.9609 14.6484 30.0586 17.627 29.707 19.4434C29.1113 22.4316 27.6172 24.043 27.0117 25.0586C26.875 25.293 28.623 26.0352 29.7266 29.0918C30.7422 31.8848 29.834 34.2383 30 34.4922C30.0781 34.6289 31.3379 34.5703 33.5547 33.2031C34.8047 32.4316 36.2988 31.5527 37.9883 31.543C39.6191 31.4941 39.707 33.418 38.4668 33.7109ZM48.4375 25C48.4375 38.3691 37.5879 49.2188 24.2188 49.2188C10.8496 49.2188 0 38.3691 0 25C0 11.6309 10.8496 0.78125 24.2188 0.78125C37.5879 0.78125 48.4375 11.6309 48.4375 25ZM40.6934 32.3438C40.5273 31.0156 39.4043 30.0977 37.959 30.1172C35.8105 30.1465 34.0039 31.2598 32.8027 31.9922C32.334 32.2852 31.9336 32.5 31.5918 32.6562C31.8945 28.3105 29.3945 25.5176 28.7891 24.9023C29.5508 23.7988 30.5859 22.1875 31.0742 19.707C31.4941 17.5879 31.3672 14.2871 30.4004 12.4316C30.2441 12.1289 29.6777 11.3379 28.3496 11.709C27.4023 9.75586 27.0801 9.55078 26.8262 9.38477C26.7188 9.31641 24.5215 7.7832 22.7832 12.1191C21.5918 12.207 19.7266 12.6367 18.1445 14.3457C17.9492 14.5605 17.5684 14.7168 17.1582 14.873H17.168C16.3477 15.166 15.9668 15.8398 15.5176 17.0508C14.8828 18.75 15.5371 20.4297 16.1816 21.5137C14.4434 23.0664 12.5684 25.4004 12.6953 29.5703C9.375 33.0859 11.543 36.6992 12.1484 37.3438C11.9922 38.4277 12.5098 39.2383 13.3203 39.668C14.5508 40.3223 16.2793 40.6055 17.6074 39.9414C18.0859 40.4492 18.9551 40.9277 20.5371 40.9277C21.2012 40.9277 26.2012 40.6445 27.627 40.293C28.291 40.1367 28.75 39.8535 29.0527 39.5996C30.0098 39.2969 32.6465 38.3984 35.127 36.7969C36.8848 35.6543 37.4902 35.4102 38.7988 35.0977C40.0586 34.7852 40.8496 33.623 40.6934 32.3438Z" fill="#2C8EBB"/>
</g>
<defs>
<clipPath id="clip0_20_278">
<rect width="48.4375" height="50" fill="white"/>
</clipPath>
</defs>
</svg>
